<svg width="242" height="84" viewBox="0 0 242 84" fill="none" xmlns="http://www.w3.org/2000/svg">
<g filter="url(#filter0_d_73_5)">
<mask id="path-1-outside-1_73_5" maskUnits="userSpaceOnUse" x="2" y="-2" width="238" height="80" fill="black">
<rect fill="white" x="2" y="-2" width="238" height="80"/>
<path d="M4.3 5H20.5V61.8H55.6V75H4.3V5ZM115.861 48.3C115.861 48.5 115.761 49.9 115.561 52.5H74.8609C75.5943 55.8333 77.3276 58.4667 80.0609 60.4C82.7943 62.3333 86.1943 63.3 90.2609 63.3C93.0609 63.3 95.5276 62.9 97.6609 62.1C99.8609 61.2333 101.894 59.9 103.761 58.1L112.061 67.1C106.994 72.9 99.5943 75.8 89.8609 75.8C83.7943 75.8 78.4276 74.6333 73.7609 72.3C69.0943 69.9 65.4943 66.6 62.9609 62.4C60.4276 58.2 59.1609 53.4333 59.1609 48.1C59.1609 42.8333 60.3943 38.1 62.8609 33.9C65.3943 29.6333 68.8276 26.3333 73.1609 24C77.5609 21.6 82.4609 20.4 87.8609 20.4C93.1276 20.4 97.8943 21.5333 102.161 23.8C106.428 26.0667 109.761 29.3333 112.161 33.6C114.628 37.8 115.861 42.7 115.861 48.3ZM87.9609 32.2C84.4276 32.2 81.4609 33.2 79.0609 35.2C76.6609 37.2 75.1943 39.9333 74.6609 43.4H101.161C100.628 40 99.1609 37.3 96.7609 35.3C94.3609 33.2333 91.4276 32.2 87.9609 32.2ZM160.947 72.4C159.414 73.5333 157.514 74.4 155.247 75C153.047 75.5333 150.714 75.8 148.247 75.8C141.847 75.8 136.88 74.1667 133.347 70.9C129.88 67.6333 128.147 62.8333 128.147 56.5V34.4H119.847V22.4H128.147V9.3H143.747V22.4H157.147V34.4H143.747V56.3C143.747 58.5667 144.314 60.3333 145.447 61.6C146.647 62.8 148.314 63.4 150.447 63.4C152.914 63.4 155.014 62.7333 156.747 61.4L160.947 72.4ZM175.704 -5.96046e-06C178.504 -5.96046e-06 180.804 0.899994 182.604 2.7C184.404 4.43333 185.304 6.73333 185.304 9.6C185.304 10.9333 185.137 12.2667 184.804 13.6C184.471 14.9333 183.771 16.9333 182.704 19.6L176.904 34H167.004L171.304 18.2C169.637 17.4667 168.337 16.3667 167.404 14.9C166.471 13.4333 166.004 11.6667 166.004 9.6C166.004 6.73333 166.904 4.43333 168.704 2.7C170.571 0.899994 172.904 -5.96046e-06 175.704 -5.96046e-06ZM212.218 75.8C207.751 75.8 203.385 75.2667 199.118 74.2C194.851 73.0667 191.451 71.6667 188.918 70L194.118 58.8C196.518 60.3333 199.418 61.6 202.818 62.6C206.218 63.5333 209.551 64 212.818 64C219.418 64 222.718 62.3667 222.718 59.1C222.718 57.5667 221.818 56.4667 220.018 55.8C218.218 55.1333 215.451 54.5667 211.718 54.1C207.318 53.4333 203.685 52.6667 200.818 51.8C197.951 50.9333 195.451 49.4 193.318 47.2C191.251 45 190.218 41.8667 190.218 37.8C190.218 34.4 191.185 31.4 193.118 28.8C195.118 26.1333 197.985 24.0667 201.718 22.6C205.518 21.1333 209.985 20.4 215.118 20.4C218.918 20.4 222.685 20.8333 226.418 21.7C230.218 22.5 233.351 23.6333 235.818 25.1L230.618 36.2C225.885 33.5333 220.718 32.2 215.118 32.2C211.785 32.2 209.285 32.6667 207.618 33.6C205.951 34.5333 205.118 35.7333 205.118 37.2C205.118 38.8667 206.018 40.0333 207.818 40.7C209.618 41.3667 212.485 42 216.418 42.6C220.818 43.3333 224.418 44.1333 227.218 45C230.018 45.8 232.451 47.3 234.518 49.5C236.585 51.7 237.618 54.7667 237.618 58.7C237.618 62.0333 236.618 65 234.618 67.6C232.618 70.2 229.685 72.2333 225.818 73.7C222.018 75.1 217.485 75.8 212.218 75.8Z"/>
</mask>
<path d="M4.3 5V3H2.3V5H4.3ZM20.5 5H22.5V3H20.5V5ZM20.5 61.8H18.5V63.8H20.5V61.8ZM55.6 61.8H57.6V59.8H55.6V61.8ZM55.6 75V77H57.6V75H55.6ZM4.3 75H2.3V77H4.3V75ZM4.3 7H20.5V3H4.3V7ZM18.5 5V61.8H22.5V5H18.5ZM20.5 63.8H55.6V59.8H20.5V63.8ZM53.6 61.8V75H57.6V61.8H53.6ZM55.6 73H4.3V77H55.6V73ZM6.3 75V5H2.3V75H6.3ZM115.561 52.5V54.5H117.413L117.555 52.6534L115.561 52.5ZM74.8609 52.5V50.5H72.3731L72.9076 52.9297L74.8609 52.5ZM80.0609 60.4L81.2159 58.7672L80.0609 60.4ZM97.6609 62.1L98.3632 63.9727L98.3786 63.9669L98.394 63.9608L97.6609 62.1ZM103.761 58.1L105.231 56.7441L103.845 55.2408L102.373 56.6603L103.761 58.1ZM112.061 67.1L113.567 68.4158L114.748 67.0638L113.531 65.7441L112.061 67.1ZM73.7609 72.3L72.8462 74.0786L72.8563 74.0838L72.8665 74.0889L73.7609 72.3ZM62.9609 62.4L61.2484 63.433L62.9609 62.4ZM62.8609 33.9L61.1412 32.8789L61.1364 32.8872L62.8609 33.9ZM73.1609 24L74.1092 25.761L74.1186 25.7558L73.1609 24ZM102.161 23.8L103.099 22.0338L102.161 23.8ZM112.161 33.6L110.418 34.5805L110.427 34.5968L110.436 34.6128L112.161 33.6ZM79.0609 35.2L77.7806 33.6636L79.0609 35.2ZM74.6609 43.4L72.6842 43.0959L72.3297 45.4H74.6609V43.4ZM101.161 43.4V45.4H103.499L103.137 43.0901L101.161 43.4ZM96.7609 35.3L95.4559 36.8155L95.4681 36.8261L95.4806 36.8364L96.7609 35.3ZM113.861 48.3C113.861 48.2734 113.86 48.3269 113.846 48.5502C113.834 48.7415 113.816 49.0098 113.791 49.3575C113.741 50.052 113.667 51.0477 113.567 52.3466L117.555 52.6534C117.749 50.1275 117.861 48.6014 117.861 48.3H113.861ZM115.561 50.5H74.8609V54.5H115.561V50.5ZM72.9076 52.9297C73.7457 56.7391 75.7574 59.8057 78.906 62.0328L81.2159 58.7672C78.8978 57.1276 77.4428 54.9276 76.8142 52.0703L72.9076 52.9297ZM78.906 62.0328C82.044 64.2524 85.8709 65.3 90.2609 65.3V61.3C86.5176 61.3 83.5445 60.4143 81.2159 58.7672L78.906 62.0328ZM90.2609 65.3C93.2477 65.3 95.9605 64.8737 98.3632 63.9727L96.9587 60.2273C95.0947 60.9263 92.8742 61.3 90.2609 61.3V65.3ZM98.394 63.9608C100.861 62.9892 103.112 61.504 105.149 59.5397L102.373 56.6603C100.676 58.296 98.8614 59.4775 96.9279 60.2392L98.394 63.9608ZM102.291 59.4559L110.591 68.4559L113.531 65.7441L105.231 56.7441L102.291 59.4559ZM110.555 65.7842C105.964 71.0396 99.1808 73.8 89.8609 73.8V77.8C100.008 77.8 108.025 74.7604 113.567 68.4158L110.555 65.7842ZM89.8609 73.8C84.0543 73.8 79.0024 72.6847 74.6554 70.5111L72.8665 74.0889C77.8528 76.582 83.5343 77.8 89.8609 77.8V73.8ZM74.6756 70.5214C70.3149 68.2788 67.0017 65.2269 64.6735 61.367L61.2484 63.433C63.9868 67.9731 67.8736 71.5212 72.8462 74.0786L74.6756 70.5214ZM64.6735 61.367C62.3445 57.5058 61.1609 53.1022 61.1609 48.1H57.1609C57.1609 53.7645 58.5107 58.8942 61.2484 63.433L64.6735 61.367ZM61.1609 48.1C61.1609 43.1595 62.3138 38.781 64.5855 34.9128L61.1364 32.8872C58.4748 37.419 57.1609 42.5071 57.1609 48.1H61.1609ZM64.5807 34.9211C66.9303 30.9638 70.0981 27.9207 74.1091 25.7609L72.2127 22.2391C67.5571 24.7459 63.8582 28.3029 61.1412 32.8789L64.5807 34.9211ZM74.1186 25.7558C78.2023 23.5283 82.7689 22.4 87.8609 22.4V18.4C82.1529 18.4 76.9195 19.6717 72.2032 22.2442L74.1186 25.7558ZM87.8609 22.4C92.8306 22.4 97.2704 23.4666 101.223 25.5662L103.099 22.0338C98.5181 19.6001 93.4246 18.4 87.8609 18.4V22.4ZM101.223 25.5662C105.147 27.6509 108.203 30.6427 110.418 34.5805L113.904 32.6195C111.319 28.024 107.709 24.4825 103.099 22.0338L101.223 25.5662ZM110.436 34.6128C112.697 38.4622 113.861 43.002 113.861 48.3H117.861C117.861 42.398 116.558 37.1378 113.886 32.5872L110.436 34.6128ZM87.9609 30.2C84.0248 30.2 80.587 31.3249 77.7806 33.6636L80.3413 36.7364C82.3349 35.0751 84.8304 34.2 87.9609 34.2V30.2ZM77.7806 33.6636C74.9595 36.0145 73.2819 39.2107 72.6842 43.0959L76.6377 43.7041C77.1066 40.656 78.3624 38.3855 80.3413 36.7364L77.7806 33.6636ZM74.6609 45.4H101.161V41.4H74.6609V45.4ZM103.137 43.0901C102.536 39.2629 100.853 36.1068 98.0413 33.7636L95.4806 36.8364C97.4686 38.4932 98.7188 40.7371 99.1851 43.7099L103.137 43.0901ZM98.066 33.7845C95.2677 31.3748 91.8579 30.2 87.9609 30.2V34.2C90.9974 34.2 93.4542 35.0918 95.4559 36.8155L98.066 33.7845ZM160.947 72.4L162.136 74.0084L163.357 73.1056L162.815 71.6866L160.947 72.4ZM155.247 75L155.718 76.9437L155.738 76.9388L155.759 76.9334L155.247 75ZM133.347 70.9L131.975 72.3556L131.982 72.3621L131.989 72.3685L133.347 70.9ZM128.147 34.4H130.147V32.4H128.147V34.4ZM119.847 34.4H117.847V36.4H119.847V34.4ZM119.847 22.4V20.4H117.847V22.4H119.847ZM128.147 22.4V24.4H130.147V22.4H128.147ZM128.147 9.3V7.3H126.147V9.3H128.147ZM143.747 9.3H145.747V7.3H143.747V9.3ZM143.747 22.4H141.747V24.4H143.747V22.4ZM157.147 22.4H159.147V20.4H157.147V22.4ZM157.147 34.4V36.4H159.147V34.4H157.147ZM143.747 34.4V32.4H141.747V34.4H143.747ZM145.447 61.6L143.956 62.9336L143.993 62.975L144.033 63.0142L145.447 61.6ZM156.747 61.4L158.615 60.6866L157.657 58.1767L155.527 59.8148L156.747 61.4ZM159.758 70.7916C158.469 71.7447 156.812 72.5168 154.735 73.0666L155.759 76.9334C158.215 76.2832 160.358 75.322 162.136 74.0084L159.758 70.7916ZM154.776 73.0563C152.743 73.5491 150.569 73.8 148.247 73.8V77.8C150.858 77.8 153.351 77.5176 155.718 76.9437L154.776 73.0563ZM148.247 73.8C142.18 73.8 137.76 72.2564 134.705 69.4315L131.989 72.3685C136 76.0769 141.513 77.8 148.247 77.8V73.8ZM134.718 69.4444C131.773 66.6685 130.147 62.4719 130.147 56.5H126.147C126.147 63.1948 127.988 68.5981 131.975 72.3556L134.718 69.4444ZM130.147 56.5V34.4H126.147V56.5H130.147ZM128.147 32.4H119.847V36.4H128.147V32.4ZM121.847 34.4V22.4H117.847V34.4H121.847ZM119.847 24.4H128.147V20.4H119.847V24.4ZM130.147 22.4V9.3H126.147V22.4H130.147ZM128.147 11.3H143.747V7.3H128.147V11.3ZM141.747 9.3V22.4H145.747V9.3H141.747ZM143.747 24.4H157.147V20.4H143.747V24.4ZM155.147 22.4V34.4H159.147V22.4H155.147ZM157.147 32.4H143.747V36.4H157.147V32.4ZM141.747 34.4V56.3H145.747V34.4H141.747ZM141.747 56.3C141.747 58.8919 142.399 61.1925 143.956 62.9336L146.937 60.2664C146.229 59.4742 145.747 58.2414 145.747 56.3H141.747ZM144.033 63.0142C145.698 64.68 147.927 65.4 150.447 65.4V61.4C148.7 61.4 147.595 60.92 146.861 60.1858L144.033 63.0142ZM150.447 65.4C153.295 65.4 155.839 64.6216 157.966 62.9852L155.527 59.8148C154.188 60.8451 152.532 61.4 150.447 61.4V65.4ZM154.878 62.1134L159.078 73.1134L162.815 71.6866L158.615 60.6866L154.878 62.1134ZM182.604 2.7L181.19 4.11421L181.203 4.12755L181.217 4.14063L182.604 2.7ZM184.804 13.6L182.864 13.1149L184.804 13.6ZM182.704 19.6L184.559 20.3472L184.561 20.3428L182.704 19.6ZM176.904 34V36H178.254L178.759 34.7472L176.904 34ZM167.004 34L165.074 33.4748L164.387 36H167.004V34ZM171.304 18.2L173.234 18.7252L173.686 17.0631L172.109 16.3694L171.304 18.2ZM167.404 14.9L165.717 15.9738L167.404 14.9ZM168.704 2.7L170.091 4.14063L170.092 4.13968L168.704 2.7ZM175.704 1.99999C178.032 1.99999 179.804 2.72855 181.19 4.11421L184.018 1.28578C181.804 -0.928562 178.976 -2.00001 175.704 -2.00001V1.99999ZM181.217 4.14063C182.566 5.4404 183.304 7.18951 183.304 9.59999H187.304C187.304 6.27715 186.241 3.42626 183.991 1.25936L181.217 4.14063ZM183.304 9.59999C183.304 10.7648 183.159 11.9353 182.864 13.1149L186.744 14.0851C187.116 12.598 187.304 11.1018 187.304 9.59999H183.304ZM182.864 13.1149C182.565 14.3095 181.908 16.2046 180.847 18.8572L184.561 20.3428C185.633 17.662 186.376 15.5572 186.744 14.0851L182.864 13.1149ZM180.849 18.8528L175.049 33.2528L178.759 34.7472L184.559 20.3472L180.849 18.8528ZM176.904 32H167.004V36H176.904V32ZM168.934 34.5252L173.234 18.7252L169.374 17.6748L165.074 33.4748L168.934 34.5252ZM172.109 16.3694C170.787 15.7875 169.802 14.9426 169.091 13.8262L165.717 15.9738C166.873 17.7908 168.488 19.1458 170.498 20.0306L172.109 16.3694ZM169.091 13.8262C168.398 12.7368 168.004 11.359 168.004 9.59999H164.004C164.004 11.9743 164.543 14.1299 165.717 15.9738L169.091 13.8262ZM168.004 9.59999C168.004 7.18951 168.741 5.4404 170.091 4.14063L167.317 1.25936C165.066 3.42626 164.004 6.27715 164.004 9.59999H168.004ZM170.092 4.13968C171.555 2.72944 173.376 1.99999 175.704 1.99999V-2.00001C172.431 -2.00001 169.587 -0.929451 167.316 1.26031L170.092 4.13968ZM199.118 74.2L198.605 76.133L198.619 76.1367L198.633 76.1403L199.118 74.2ZM188.918 70L187.104 69.1578L186.377 70.7226L187.819 71.6708L188.918 70ZM194.118 58.8L195.195 57.1146L193.267 55.8831L192.304 57.9578L194.118 58.8ZM202.818 62.6L202.254 64.5187L202.271 64.5238L202.289 64.5286L202.818 62.6ZM220.018 55.8L219.323 57.6755L220.018 55.8ZM211.718 54.1L211.418 56.0774L211.444 56.0813L211.47 56.0846L211.718 54.1ZM200.818 51.8L201.397 49.8856L200.818 51.8ZM193.318 47.2L191.86 48.5694L191.871 48.5809L191.882 48.5923L193.318 47.2ZM193.118 28.8L191.518 27.6L191.513 27.6066L193.118 28.8ZM201.718 22.6L200.998 20.7341L200.987 20.7385L201.718 22.6ZM226.418 21.7L225.966 23.6482L225.986 23.6528L226.006 23.6571L226.418 21.7ZM235.818 25.1L237.629 25.9484L238.398 24.3072L236.84 23.3809L235.818 25.1ZM230.618 36.2L229.636 37.9425L231.515 39.0007L232.429 37.0485L230.618 36.2ZM207.618 33.6L206.641 31.855L207.618 33.6ZM207.818 40.7L208.513 38.8245L207.818 40.7ZM216.418 42.6L216.747 40.6272L216.733 40.6249L216.72 40.6229L216.418 42.6ZM227.218 45L226.627 46.9106L226.647 46.917L226.669 46.923L227.218 45ZM234.518 49.5L233.06 50.8693L234.518 49.5ZM234.618 67.6L236.203 68.8194L234.618 67.6ZM225.818 73.7L226.509 75.5767L226.518 75.5734L226.527 75.57L225.818 73.7ZM212.218 73.8C207.912 73.8 203.709 73.2861 199.603 72.2597L198.633 76.1403C203.061 77.2472 207.59 77.8 212.218 77.8V73.8ZM199.631 72.267C195.487 71.1661 192.309 69.8369 190.017 68.3292L187.819 71.6708C190.594 73.4965 194.216 74.9672 198.605 76.133L199.631 72.267ZM190.732 70.8422L195.932 59.6422L192.304 57.9578L187.104 69.1578L190.732 70.8422ZM193.041 60.4854C195.633 62.1415 198.715 63.4779 202.254 64.5187L203.382 60.6813C200.121 59.7221 197.403 58.5252 195.195 57.1146L193.041 60.4854ZM202.289 64.5286C205.847 65.5056 209.359 66 212.818 66V62C209.744 62 206.589 61.5611 203.347 60.6713L202.289 64.5286ZM212.818 66C216.219 66 219.065 65.5897 221.13 64.5675C222.191 64.0425 223.109 63.3247 223.758 62.3609C224.416 61.3837 224.718 60.2708 224.718 59.1H220.718C220.718 59.5625 220.607 59.8788 220.44 60.1265C220.264 60.3878 219.945 60.6908 219.356 60.9825C218.121 61.5936 216.017 62 212.818 62V66ZM224.718 59.1C224.718 57.9107 224.357 56.795 223.591 55.8585C222.85 54.9532 221.833 54.3396 220.713 53.9245L219.323 57.6755C220.003 57.927 220.336 58.1968 220.495 58.3915C220.629 58.555 220.718 58.756 220.718 59.1H224.718ZM220.713 53.9245C218.689 53.1751 215.736 52.5867 211.966 52.1154L211.47 56.0846C215.167 56.5467 217.747 57.0915 219.323 57.6755L220.713 53.9245ZM212.018 52.1226C207.671 51.464 204.14 50.7148 201.397 49.8856L200.239 53.7144C203.23 54.6185 206.965 55.4026 211.418 56.0774L212.018 52.1226ZM201.397 49.8856C198.863 49.1197 196.656 47.7696 194.754 45.8077L191.882 48.5923C194.246 51.0304 197.039 52.747 200.239 53.7144L201.397 49.8856ZM194.776 45.8306C193.164 44.1147 192.218 41.538 192.218 37.8H188.218C188.218 42.1953 189.339 45.8853 191.86 48.5694L194.776 45.8306ZM192.218 37.8C192.218 34.8073 193.059 32.2306 194.723 29.9934L191.513 27.6066C189.31 30.5694 188.218 33.9927 188.218 37.8H192.218ZM194.718 30C196.454 27.6855 198.991 25.8203 202.449 24.4615L200.987 20.7385C196.979 22.3131 193.782 24.5812 191.518 27.6L194.718 30ZM202.438 24.4658C205.957 23.1076 210.169 22.4 215.118 22.4V18.4C209.8 18.4 205.079 19.1591 200.998 20.7341L202.438 24.4658ZM215.118 22.4C218.764 22.4 222.379 22.8157 225.966 23.6482L226.87 19.7518C222.99 18.851 219.072 18.4 215.118 18.4V22.4ZM226.006 23.6571C229.662 24.4267 232.572 25.4966 234.796 26.8191L236.84 23.3809C234.131 21.7701 230.774 20.5733 226.83 19.7429L226.006 23.6571ZM234.007 24.2515L228.807 35.3515L232.429 37.0485L237.629 25.9484L234.007 24.2515ZM231.6 34.4575C226.557 31.6167 221.051 30.2 215.118 30.2V34.2C220.385 34.2 225.212 35.45 229.636 37.9425L231.6 34.4575ZM215.118 30.2C211.664 30.2 208.753 30.6722 206.641 31.855L208.595 35.345C209.816 34.6611 211.906 34.2 215.118 34.2V30.2ZM206.641 31.855C204.563 33.0185 203.118 34.7877 203.118 37.2H207.118C207.118 36.6789 207.34 36.0482 208.595 35.345L206.641 31.855ZM203.118 37.2C203.118 38.4145 203.454 39.5679 204.209 40.5466C204.948 41.5043 205.976 42.1506 207.123 42.5755L208.513 38.8245C207.86 38.5827 207.538 38.3123 207.377 38.1034C207.232 37.9154 207.118 37.6522 207.118 37.2H203.118ZM207.123 42.5755C209.124 43.3166 212.16 43.9736 216.116 44.5771L216.72 40.6229C212.81 40.0264 210.112 39.4167 208.513 38.8245L207.123 42.5755ZM216.089 44.5728C220.441 45.2981 223.945 46.0804 226.627 46.9106L227.809 43.0894C224.891 42.1862 221.195 41.3686 216.747 40.6272L216.089 44.5728ZM226.669 46.923C229.108 47.6201 231.231 48.9224 233.06 50.8693L235.976 48.1306C233.671 45.6776 230.928 43.9799 227.767 43.077L226.669 46.923ZM233.06 50.8693C234.683 52.5968 235.618 55.1164 235.618 58.7H239.618C239.618 54.4169 238.486 50.8031 235.976 48.1306L233.06 50.8693ZM235.618 58.7C235.618 61.6 234.759 64.1363 233.033 66.3806L236.203 68.8194C238.477 65.8637 239.618 62.4667 239.618 58.7H235.618ZM233.033 66.3806C231.311 68.6191 228.718 70.4608 225.109 71.83L226.527 75.57C230.651 74.0058 233.925 71.7809 236.203 68.8194L233.033 66.3806ZM225.127 71.8233C221.603 73.1214 217.316 73.8 212.218 73.8V77.8C217.653 77.8 222.433 77.0786 226.509 75.5767L225.127 71.8233Z" fill="#282A30" mask="url(#path-1-outside-1_73_5)"/>
</g>
<defs>
<filter id="filter0_d_73_5" x="0.299988" y="0" width="241.318" height="83.8" filterUnits="userSpaceOnUse" color-interpolation-filters="sRGB">
<feFlood flood-opacity="0" result="BackgroundImageFix"/>
<feColorMatrix in="SourceAlpha" type="matrix" values="0 0 0 0 0 0 0 0 0 0 0 0 0 0 0 0 0 0 127 0" result="hardAlpha"/>
<feOffset dy="4"/>
<feGaussianBlur stdDeviation="2"/>
<feComposite in2="hardAlpha" operator="out"/>
<feColorMatrix type="matrix" values="0 0 0 0 0 0 0 0 0 0 0 0 0 0 0 0 0 0 0.25 0"/>
<feBlend mode="normal" in2="BackgroundImageFix" result="effect1_dropShadow_73_5"/>
<feBlend mode="normal" in="SourceGraphic" in2="effect1_dropShadow_73_5" result="shape"/>
</filter>
</defs>
</svg>
