<svg width="412" height="76" viewBox="0 0 412 76" fill="none" xmlns="http://www.w3.org/2000/svg">
<mask id="path-1-outside-1_28_0" maskUnits="userSpaceOnUse" x="-2" y="-2" width="417" height="80" fill="black">
<rect fill="white" x="-2" y="-2" width="417" height="80"/>
<path d="M0.3 75V5H30.6C36.8667 5 42.2667 6.03333 46.8 8.1C51.3333 10.1 54.8333 13 57.3 16.8C59.7667 20.6 61 25.1333 61 30.4C61 35.6 59.7667 40.1 57.3 43.9C54.8333 47.7 51.3333 50.6333 46.8 52.7C42.2667 54.7 36.8667 55.7 30.6 55.7H9.3L16.5 48.4V75H0.3ZM16.5 50.2L9.3 42.5H29.7C34.7 42.5 38.4333 41.4333 40.9 39.3C43.3667 37.1667 44.6 34.2 44.6 30.4C44.6 26.5333 43.3667 23.5333 40.9 21.4C38.4333 19.2667 34.7 18.2 29.7 18.2H9.3L16.5 10.5V50.2ZM71.368 75V21.2H86.268V36.4L84.168 32C85.768 28.2 88.3346 25.3333 91.868 23.4C95.4013 21.4 99.7013 20.4 104.768 20.4V34.8C104.101 34.7333 103.501 34.7 102.968 34.7C102.435 34.6333 101.868 34.6 101.268 34.6C97.0013 34.6 93.5346 35.8333 90.868 38.3C88.268 40.7 86.968 44.4667 86.968 49.6V75H71.368ZM139.253 75.8C133.52 75.8 128.42 74.6 123.953 72.2C119.553 69.8 116.053 66.5333 113.453 62.4C110.92 58.2 109.653 53.4333 109.653 48.1C109.653 42.7 110.92 37.9333 113.453 33.8C116.053 29.6 119.553 26.3333 123.953 24C128.42 21.6 133.52 20.4 139.253 20.4C144.92 20.4 149.986 21.6 154.453 24C158.92 26.3333 162.42 29.5667 164.953 33.7C167.486 37.8333 168.753 42.6333 168.753 48.1C168.753 53.4333 167.486 58.2 164.953 62.4C162.42 66.5333 158.92 69.8 154.453 72.2C149.986 74.6 144.92 75.8 139.253 75.8ZM139.253 63C141.853 63 144.186 62.4 146.253 61.2C148.32 60 149.953 58.3 151.153 56.1C152.353 53.8333 152.953 51.1667 152.953 48.1C152.953 44.9667 152.353 42.3 151.153 40.1C149.953 37.9 148.32 36.2 146.253 35C144.186 33.8 141.853 33.2 139.253 33.2C136.653 33.2 134.32 33.8 132.253 35C130.186 36.2 128.52 37.9 127.253 40.1C126.053 42.3 125.453 44.9667 125.453 48.1C125.453 51.1667 126.053 53.8333 127.253 56.1C128.52 58.3 130.186 60 132.253 61.2C134.32 62.4 136.653 63 139.253 63ZM202.28 75.8C197.214 75.8 192.647 74.6667 188.58 72.4C184.514 70.0667 181.28 66.8333 178.88 62.7C176.547 58.5667 175.38 53.7 175.38 48.1C175.38 42.4333 176.547 37.5333 178.88 33.4C181.28 29.2667 184.514 26.0667 188.58 23.8C192.647 21.5333 197.214 20.4 202.28 20.4C206.814 20.4 210.78 21.4 214.18 23.4C217.58 25.4 220.214 28.4333 222.08 32.5C223.947 36.5667 224.88 41.7667 224.88 48.1C224.88 54.3667 223.98 59.5667 222.18 63.7C220.38 67.7667 217.78 70.8 214.38 72.8C211.047 74.8 207.014 75.8 202.28 75.8ZM204.98 63C207.514 63 209.814 62.4 211.88 61.2C213.947 60 215.58 58.3 216.78 56.1C218.047 53.8333 218.68 51.1667 218.68 48.1C218.68 44.9667 218.047 42.3 216.78 40.1C215.58 37.9 213.947 36.2 211.88 35C209.814 33.8 207.514 33.2 204.98 33.2C202.38 33.2 200.047 33.8 197.98 35C195.914 36.2 194.247 37.9 192.98 40.1C191.78 42.3 191.18 44.9667 191.18 48.1C191.18 51.1667 191.78 53.8333 192.98 56.1C194.247 58.3 195.914 60 197.98 61.2C200.047 62.4 202.38 63 204.98 63ZM219.08 75V64L219.38 48L218.38 32.1V0.799996H233.98V75H219.08ZM271.119 75.8C266.652 75.8 262.652 74.9333 259.119 73.2C255.652 71.4667 252.952 68.8333 251.019 65.3C249.085 61.7 248.119 57.1333 248.119 51.6V21.2H263.719V49.3C263.719 53.7667 264.652 57.0667 266.519 59.2C268.452 61.2667 271.152 62.3 274.619 62.3C277.019 62.3 279.152 61.8 281.019 60.8C282.885 59.7333 284.352 58.1333 285.419 56C286.485 53.8 287.019 51.0667 287.019 47.8V21.2H302.619V75H287.819V60.2L290.519 64.5C288.719 68.2333 286.052 71.0667 282.519 73C279.052 74.8667 275.252 75.8 271.119 75.8ZM343.071 75.8C337.271 75.8 332.104 74.6333 327.571 72.3C323.038 69.9 319.471 66.6 316.871 62.4C314.338 58.2 313.071 53.4333 313.071 48.1C313.071 42.7 314.338 37.9333 316.871 33.8C319.471 29.6 323.038 26.3333 327.571 24C332.104 21.6 337.271 20.4 343.071 20.4C348.738 20.4 353.671 21.6 357.871 24C362.071 26.3333 365.171 29.7 367.171 34.1L355.071 40.6C353.671 38.0667 351.904 36.2 349.771 35C347.704 33.8 345.438 33.2 342.971 33.2C340.304 33.2 337.904 33.8 335.771 35C333.638 36.2 331.938 37.9 330.671 40.1C329.471 42.3 328.871 44.9667 328.871 48.1C328.871 51.2333 329.471 53.9 330.671 56.1C331.938 58.3 333.638 60 335.771 61.2C337.904 62.4 340.304 63 342.971 63C345.438 63 347.704 62.4333 349.771 61.3C351.904 60.1 353.671 58.2 355.071 55.6L367.171 62.2C365.171 66.5333 362.071 69.9 357.871 72.3C353.671 74.6333 348.738 75.8 343.071 75.8ZM398.934 75.8C392.601 75.8 387.668 74.2 384.134 71C380.601 67.7333 378.834 62.9 378.834 56.5V9.3H394.434V56.3C394.434 58.5667 395.034 60.3333 396.234 61.6C397.434 62.8 399.068 63.4 401.134 63.4C403.601 63.4 405.701 62.7333 407.434 61.4L411.634 72.4C410.034 73.5333 408.101 74.4 405.834 75C403.634 75.5333 401.334 75.8 398.934 75.8ZM370.534 34.4V22.4H407.834V34.4H370.534Z"/>
</mask>
<path d="M0.3 75H-1.7V77H0.3V75ZM0.3 5V3H-1.7V5H0.3ZM46.8 8.1L45.9704 9.91981L45.9815 9.92489L45.9927 9.92983L46.8 8.1ZM57.3 16.8L55.6224 17.8889L55.6224 17.8889L57.3 16.8ZM57.3 43.9L55.6224 42.8111L57.3 43.9ZM46.8 52.7L47.6073 54.5298L47.6185 54.5249L47.6296 54.5198L46.8 52.7ZM9.3 55.7L7.87607 54.2956L4.51828 57.7H9.3V55.7ZM16.5 48.4H18.5V43.5241L15.0761 46.9956L16.5 48.4ZM16.5 75V77H18.5V75H16.5ZM16.5 50.2L15.0392 51.566L18.5 55.2672V50.2H16.5ZM9.3 42.5V40.5H4.69174L7.83915 43.866L9.3 42.5ZM9.3 18.2L7.83915 16.834L4.69174 20.2H9.3V18.2ZM16.5 10.5H18.5V5.43282L15.0392 9.13401L16.5 10.5ZM2.3 75V5H-1.7V75H2.3ZM0.3 7H30.6V3H0.3V7ZM30.6 7C36.6519 7 41.7556 7.99835 45.9704 9.91981L47.6296 6.28018C42.7778 4.06831 37.0814 3 30.6 3V7ZM45.9927 9.92983C50.2048 11.7881 53.3874 14.4457 55.6224 17.8889L58.9776 15.7111C56.2793 11.5542 52.4619 8.41189 47.6073 6.27016L45.9927 9.92983ZM55.6224 17.8889C57.8462 21.3148 59 25.4556 59 30.4H63C63 24.811 61.6871 19.8852 58.9776 15.7111L55.6224 17.8889ZM59 30.4C59 35.2721 57.8489 39.3811 55.6224 42.8111L58.9776 44.9889C61.6845 40.8189 63 35.9279 63 30.4H59ZM55.6224 42.8111C53.3835 46.2602 50.1931 48.9551 45.9704 50.8802L47.6296 54.5198C52.4736 52.3115 56.2831 49.1398 58.9776 44.9889L55.6224 42.8111ZM45.9927 50.8702C41.7716 52.7324 36.6597 53.7 30.6 53.7V57.7C37.0736 57.7 42.7618 56.6676 47.6073 54.5298L45.9927 50.8702ZM30.6 53.7H9.3V57.7H30.6V53.7ZM10.7239 57.1044L17.9239 49.8044L15.0761 46.9956L7.87607 54.2956L10.7239 57.1044ZM14.5 48.4V75H18.5V48.4H14.5ZM16.5 73H0.3V77H16.5V73ZM17.9608 48.834L10.7608 41.134L7.83915 43.866L15.0392 51.566L17.9608 48.834ZM9.3 44.5H29.7V40.5H9.3V44.5ZM29.7 44.5C34.9347 44.5 39.2277 43.3906 42.2083 40.8127L39.5917 37.7873C37.639 39.4761 34.4653 40.5 29.7 40.5V44.5ZM42.2083 40.8127C45.1886 38.2352 46.6 34.6746 46.6 30.4H42.6C42.6 33.7254 41.5447 36.0982 39.5917 37.7873L42.2083 40.8127ZM46.6 30.4C46.6 26.0712 45.1967 22.4718 42.2083 19.8873L39.5917 22.9127C41.5367 24.5949 42.6 26.9955 42.6 30.4H46.6ZM42.2083 19.8873C39.2277 17.3094 34.9347 16.2 29.7 16.2V20.2C34.4653 20.2 37.639 21.2239 39.5917 22.9127L42.2083 19.8873ZM29.7 16.2H9.3V20.2H29.7V16.2ZM10.7608 19.566L17.9608 11.866L15.0392 9.13401L7.83915 16.834L10.7608 19.566ZM14.5 10.5V50.2H18.5V10.5H14.5ZM71.368 75H69.368V77H71.368V75ZM71.368 21.2V19.2H69.368V21.2H71.368ZM86.268 21.2H88.268V19.2H86.268V21.2ZM86.268 36.4L84.463 37.2615L88.268 36.4H86.268ZM84.168 32L82.3247 31.2239L81.9763 32.0513L82.363 32.8615L84.168 32ZM91.868 23.4L92.828 25.1545L92.8406 25.1476L92.8532 25.1405L91.868 23.4ZM104.768 20.4H106.768V18.4H104.768V20.4ZM104.768 34.8L104.569 36.7901L106.768 37.01V34.8H104.768ZM102.968 34.7L102.72 36.6846L102.843 36.7H102.968V34.7ZM90.868 38.3L92.2245 39.7696L92.2261 39.7682L90.868 38.3ZM86.968 75V77H88.968V75H86.968ZM73.368 75V21.2H69.368V75H73.368ZM71.368 23.2H86.268V19.2H71.368V23.2ZM84.268 21.2V36.4H88.268V21.2H84.268ZM88.0729 35.5385L85.9729 31.1385L82.363 32.8615L84.463 37.2615L88.0729 35.5385ZM86.0112 32.7761C87.4403 29.382 89.7012 26.8654 92.828 25.1545L90.9079 21.6455C86.968 23.8013 84.0956 27.018 82.3247 31.2239L86.0112 32.7761ZM92.8532 25.1405C96.0202 23.3479 99.9621 22.4 104.768 22.4V18.4C99.4405 18.4 94.7824 19.4521 90.8828 21.6595L92.8532 25.1405ZM102.768 20.4V34.8H106.768V20.4H102.768ZM104.967 32.8099C104.25 32.7382 103.582 32.7 102.968 32.7V36.7C103.421 36.7 103.953 36.7284 104.569 36.7901L104.967 32.8099ZM103.216 32.7154C102.592 32.6374 101.942 32.6 101.268 32.6V36.6C101.794 36.6 102.278 36.6293 102.72 36.6846L103.216 32.7154ZM101.268 32.6C96.5914 32.6 92.6096 33.9646 89.5099 36.8318L92.2261 39.7682C94.4597 37.7021 97.4112 36.6 101.268 36.6V32.6ZM89.5114 36.8304C86.3453 39.7529 84.968 44.1636 84.968 49.6H88.968C88.968 44.7697 90.1906 41.647 92.2245 39.7696L89.5114 36.8304ZM84.968 49.6V75H88.968V49.6H84.968ZM86.968 73H71.368V77H86.968V73ZM123.953 72.2L122.995 73.9558L123.006 73.9618L123.953 72.2ZM113.453 62.4L111.741 63.433L111.75 63.449L111.76 63.4649L113.453 62.4ZM113.453 33.8L111.753 32.7473L111.748 32.7549L113.453 33.8ZM123.953 24L124.89 25.7669L124.9 25.7618L123.953 24ZM154.453 24L153.506 25.7618L153.517 25.7673L153.527 25.7727L154.453 24ZM164.953 62.4L166.658 63.4451L166.662 63.4391L166.666 63.433L164.953 62.4ZM154.453 72.2L153.506 70.4382L153.506 70.4382L154.453 72.2ZM146.253 61.2L147.257 62.9296L147.257 62.9296L146.253 61.2ZM151.153 56.1L152.909 57.0577L152.915 57.0468L152.921 57.0358L151.153 56.1ZM151.153 40.1L149.397 41.0577L149.397 41.0577L151.153 40.1ZM146.253 35L145.249 36.7296L145.249 36.7296L146.253 35ZM132.253 35L133.257 36.7296L133.257 36.7296L132.253 35ZM127.253 40.1L125.52 39.1021L125.508 39.1221L125.497 39.1423L127.253 40.1ZM127.253 56.1L125.486 57.0358L125.502 57.0672L125.52 57.0979L127.253 56.1ZM132.253 61.2L133.257 59.4704L133.257 59.4704L132.253 61.2ZM139.253 73.8C133.806 73.8 129.039 72.6624 124.9 70.4382L123.006 73.9618C127.8 76.5376 133.233 77.8 139.253 77.8V73.8ZM124.911 70.4442C120.803 68.2034 117.559 65.1712 115.146 61.3351L111.76 63.4649C114.547 67.8954 118.304 71.3966 122.995 73.9558L124.911 70.4442ZM115.166 61.367C112.837 57.5058 111.653 53.1022 111.653 48.1H107.653C107.653 53.7645 109.003 58.8942 111.741 63.433L115.166 61.367ZM111.653 48.1C111.653 43.0257 112.839 38.629 115.158 34.8451L111.748 32.7549C109 37.2377 107.653 42.3743 107.653 48.1H111.653ZM115.154 34.8527C117.565 30.9569 120.801 27.9355 124.89 25.7669L123.016 22.2331C118.306 24.7311 114.541 28.2431 111.753 32.7473L115.154 34.8527ZM124.9 25.7618C129.039 23.5376 133.806 22.4 139.253 22.4V18.4C133.233 18.4 127.8 19.6624 123.006 22.2382L124.9 25.7618ZM139.253 22.4C144.629 22.4 149.364 23.5358 153.506 25.7618L155.4 22.2382C150.609 19.6642 145.211 18.4 139.253 18.4V22.4ZM153.527 25.7727C157.686 27.9454 160.911 30.9329 163.248 34.7451L166.658 32.6549C163.928 28.2005 160.153 24.7213 155.379 22.2273L153.527 25.7727ZM163.248 34.7451C165.565 38.5252 166.753 42.9539 166.753 48.1H170.753C170.753 42.3127 169.408 37.1415 166.658 32.6549L163.248 34.7451ZM166.753 48.1C166.753 53.1022 165.57 57.5058 163.241 61.367L166.666 63.433C169.403 58.8942 170.753 53.7645 170.753 48.1H166.753ZM163.248 61.3549C160.908 65.1723 157.676 68.1977 153.506 70.4382L155.4 73.9618C160.163 71.4023 163.931 67.8944 166.658 63.4451L163.248 61.3549ZM153.506 70.4382C149.364 72.6642 144.629 73.8 139.253 73.8V77.8C145.211 77.8 150.609 76.5358 155.4 73.9618L153.506 70.4382ZM139.253 65C142.174 65 144.859 64.3221 147.257 62.9296L145.249 59.4704C143.514 60.4779 141.532 61 139.253 61V65ZM147.257 62.9296C149.656 61.5367 151.543 59.5626 152.909 57.0577L149.397 55.1423C148.364 57.0374 146.983 58.4633 145.249 59.4704L147.257 62.9296ZM152.921 57.0358C154.301 54.4295 154.953 51.4294 154.953 48.1H150.953C150.953 50.904 150.406 53.2372 149.386 55.1642L152.921 57.0358ZM154.953 48.1C154.953 44.7144 154.304 41.7008 152.909 39.1423L149.397 41.0577C150.402 42.8992 150.953 45.2189 150.953 48.1H154.953ZM152.909 39.1423C151.543 36.6374 149.656 34.6632 147.257 33.2704L145.249 36.7296C146.983 37.7367 148.364 39.1626 149.397 41.0577L152.909 39.1423ZM147.257 33.2704C144.859 31.8779 142.174 31.2 139.253 31.2V35.2C141.532 35.2 143.514 35.7221 145.249 36.7296L147.257 33.2704ZM139.253 31.2C136.332 31.2 133.647 31.8779 131.249 33.2704L133.257 36.7296C134.992 35.7221 136.974 35.2 139.253 35.2V31.2ZM131.249 33.2704C128.86 34.6573 126.95 36.6182 125.52 39.1021L128.986 41.0979C130.09 39.1818 131.513 37.7427 133.257 36.7296L131.249 33.2704ZM125.497 39.1423C124.102 41.7008 123.453 44.7144 123.453 48.1H127.453C127.453 45.2189 128.004 42.8992 129.009 41.0577L125.497 39.1423ZM123.453 48.1C123.453 51.4294 124.106 54.4295 125.486 57.0358L129.021 55.1642C128.001 53.2372 127.453 50.904 127.453 48.1H123.453ZM125.52 57.0979C126.95 59.5818 128.86 61.5427 131.249 62.9296L133.257 59.4704C131.513 58.4573 130.09 57.0182 128.986 55.1021L125.52 57.0979ZM131.249 62.9296C133.647 64.3221 136.332 65 139.253 65V61C136.974 61 134.992 60.4779 133.257 59.4704L131.249 62.9296ZM188.58 72.4L187.585 74.1347L187.596 74.1409L187.607 74.147L188.58 72.4ZM178.88 62.7L177.139 63.6832L177.145 63.6938L177.151 63.7043L178.88 62.7ZM178.88 33.4L177.151 32.3957L177.145 32.4062L177.139 32.4168L178.88 33.4ZM188.58 23.8L187.607 22.053L187.607 22.053L188.58 23.8ZM214.18 23.4L215.195 21.6761L215.195 21.6761L214.18 23.4ZM222.08 32.5L223.898 31.6657L223.898 31.6657L222.08 32.5ZM222.18 63.7L224.009 64.5095L224.014 64.4985L222.18 63.7ZM214.38 72.8L213.366 71.0761L213.359 71.0805L213.351 71.085L214.38 72.8ZM211.88 61.2L210.876 59.4704L210.876 59.4704L211.88 61.2ZM216.78 56.1L215.035 55.1244L215.03 55.1333L215.025 55.1423L216.78 56.1ZM216.78 40.1L215.025 41.0577L215.036 41.0779L215.047 41.0979L216.78 40.1ZM211.88 35L210.876 36.7296L210.876 36.7296L211.88 35ZM197.98 35L198.985 36.7296L198.985 36.7296L197.98 35ZM192.98 40.1L191.247 39.1021L191.236 39.1221L191.225 39.1423L192.98 40.1ZM192.98 56.1L191.213 57.0358L191.23 57.0672L191.247 57.0979L192.98 56.1ZM197.98 61.2L198.985 59.4704L198.985 59.4704L197.98 61.2ZM219.08 75H217.08V77H219.08V75ZM219.08 64L217.081 63.9625L217.08 63.9813V64H219.08ZM219.38 48L221.38 48.0375L221.382 47.9559L221.377 47.8745L219.38 48ZM218.38 32.1H216.38V32.1628L216.384 32.2255L218.38 32.1ZM218.38 0.799996V-1.2H216.38V0.799996H218.38ZM233.98 0.799996H235.98V-1.2H233.98V0.799996ZM233.98 75V77H235.98V75H233.98ZM202.28 73.8C197.524 73.8 193.297 72.7393 189.554 70.653L187.607 74.147C191.997 76.594 196.904 77.8 202.28 77.8V73.8ZM189.576 70.6653C185.82 68.5103 182.837 65.5315 180.61 61.6957L177.151 63.7043C179.724 68.1352 183.208 71.6231 187.585 74.1347L189.576 70.6653ZM180.622 61.7168C178.486 57.9334 177.38 53.4177 177.38 48.1H173.38C173.38 53.9823 174.608 59.2 177.139 63.6832L180.622 61.7168ZM177.38 48.1C177.38 42.711 178.488 38.1632 180.622 34.3832L177.139 32.4168C174.606 36.9034 173.38 42.1557 173.38 48.1H177.38ZM180.61 34.4043C182.834 30.5733 185.81 27.6337 189.554 25.547L187.607 22.053C183.217 24.4996 179.726 27.9601 177.151 32.3957L180.61 34.4043ZM189.554 25.547C193.297 23.4607 197.524 22.4 202.28 22.4V18.4C196.904 18.4 191.997 19.606 187.607 22.053L189.554 25.547ZM202.28 22.4C206.511 22.4 210.117 23.3302 213.166 25.1239L215.195 21.6761C211.444 19.4698 207.116 18.4 202.28 18.4V22.4ZM213.166 25.1239C216.168 26.8894 218.543 29.5876 220.263 33.3343L223.898 31.6657C221.885 27.2791 218.993 23.9106 215.195 21.6761L213.166 25.1239ZM220.263 33.3343C221.97 37.0541 222.88 41.9433 222.88 48.1H226.88C226.88 41.59 225.924 36.0792 223.898 31.6657L220.263 33.3343ZM222.88 48.1C222.88 54.192 222.003 59.098 220.347 62.9015L224.014 64.4985C225.958 60.0354 226.88 54.5414 226.88 48.1H222.88ZM220.352 62.8905C218.698 66.6255 216.361 69.3148 213.366 71.0761L215.395 74.5239C219.2 72.2852 222.063 68.9078 224.009 64.5095L220.352 62.8905ZM213.351 71.085C210.39 72.8617 206.73 73.8 202.28 73.8V77.8C207.297 77.8 211.704 76.7383 215.409 74.515L213.351 71.085ZM204.98 65C207.845 65 210.495 64.3174 212.885 62.9296L210.876 59.4704C209.133 60.4826 207.183 61 204.98 61V65ZM212.885 62.9296C215.284 61.5367 217.17 59.5626 218.536 57.0577L215.025 55.1423C213.991 57.0374 212.611 58.4633 210.876 59.4704L212.885 62.9296ZM218.526 57.0756C219.988 54.461 220.68 51.4462 220.68 48.1H216.68C216.68 50.8871 216.107 53.2057 215.035 55.1244L218.526 57.0756ZM220.68 48.1C220.68 44.6978 219.992 41.6691 218.514 39.1021L215.047 41.0979C216.103 42.9309 216.68 45.2355 216.68 48.1H220.68ZM218.536 39.1423C217.17 36.6374 215.284 34.6632 212.885 33.2704L210.876 36.7296C212.611 37.7367 213.991 39.1626 215.025 41.0577L218.536 39.1423ZM212.885 33.2704C210.495 31.8826 207.845 31.2 204.98 31.2V35.2C207.183 35.2 209.133 35.7174 210.876 36.7296L212.885 33.2704ZM204.98 31.2C202.06 31.2 199.374 31.8779 196.976 33.2704L198.985 36.7296C200.72 35.7221 202.701 35.2 204.98 35.2V31.2ZM196.976 33.2704C194.588 34.6573 192.677 36.6182 191.247 39.1021L194.714 41.0979C195.817 39.1818 197.24 37.7427 198.985 36.7296L196.976 33.2704ZM191.225 39.1423C189.829 41.7008 189.18 44.7144 189.18 48.1H193.18C193.18 45.2189 193.732 42.8992 194.736 41.0577L191.225 39.1423ZM189.18 48.1C189.18 51.4294 189.833 54.4295 191.213 57.0358L194.748 55.1642C193.728 53.2372 193.18 50.904 193.18 48.1H189.18ZM191.247 57.0979C192.677 59.5818 194.588 61.5427 196.976 62.9296L198.985 59.4704C197.24 58.4573 195.817 57.0182 194.714 55.1021L191.247 57.0979ZM196.976 62.9296C199.374 64.3221 202.06 65 204.98 65V61C202.701 61 200.72 60.4779 198.985 59.4704L196.976 62.9296ZM221.08 75V64H217.08V75H221.08ZM221.08 64.0375L221.38 48.0375L217.381 47.9625L217.081 63.9625L221.08 64.0375ZM221.377 47.8745L220.377 31.9745L216.384 32.2255L217.384 48.1255L221.377 47.8745ZM220.38 32.1V0.799996H216.38V32.1H220.38ZM218.38 2.8H233.98V-1.2H218.38V2.8ZM231.98 0.799996V75H235.98V0.799996H231.98ZM233.98 73H219.08V77H233.98V73ZM259.119 73.2L258.224 74.9889L258.231 74.9922L258.238 74.9956L259.119 73.2ZM251.019 65.3L249.257 66.2463L249.26 66.2532L249.264 66.26L251.019 65.3ZM248.119 21.2V19.2H246.119V21.2H248.119ZM263.719 21.2H265.719V19.2H263.719V21.2ZM266.519 59.2L265.014 60.517L265.035 60.542L265.058 60.5663L266.519 59.2ZM281.019 60.8L281.963 62.563L281.987 62.55L282.011 62.5365L281.019 60.8ZM285.419 56L287.208 56.8944L287.213 56.8835L287.218 56.8725L285.419 56ZM287.019 21.2V19.2H285.019V21.2H287.019ZM302.619 21.2H304.619V19.2H302.619V21.2ZM302.619 75V77H304.619V75H302.619ZM287.819 75H285.819V77H287.819V75ZM287.819 60.2L289.513 59.1365L285.819 53.2538V60.2H287.819ZM290.519 64.5L292.32 65.3686L292.8 64.3727L292.213 63.4365L290.519 64.5ZM282.519 73L283.467 74.761L283.479 74.7545L282.519 73ZM271.119 73.8C266.916 73.8 263.224 72.9861 260 71.4044L258.238 74.9956C262.08 76.8805 266.388 77.8 271.119 77.8V73.8ZM260.013 71.4111C256.926 69.8675 254.519 67.5307 252.773 64.34L249.264 66.26C251.385 70.1359 254.378 73.0659 258.224 74.9889L260.013 71.4111ZM252.781 64.3537C251.049 61.1294 250.119 56.9149 250.119 51.6H246.119C246.119 57.3518 247.122 62.2706 249.257 66.2463L252.781 64.3537ZM250.119 51.6V21.2H246.119V51.6H250.119ZM248.119 23.2H263.719V19.2H248.119V23.2ZM261.719 21.2V49.3H265.719V21.2H261.719ZM261.719 49.3C261.719 53.9861 262.688 57.8597 265.014 60.517L268.024 57.883C266.616 56.2736 265.719 53.5472 265.719 49.3H261.719ZM265.058 60.5663C267.452 63.1256 270.732 64.3 274.619 64.3V60.3C271.572 60.3 269.452 59.4078 267.979 57.8337L265.058 60.5663ZM274.619 64.3C277.304 64.3 279.769 63.7383 281.963 62.563L280.074 59.037C278.535 59.8617 276.734 60.3 274.619 60.3V64.3ZM282.011 62.5365C284.258 61.2528 285.984 59.3408 287.208 56.8944L283.63 55.1056C282.72 56.9259 281.513 58.2139 280.026 59.0635L282.011 62.5365ZM287.218 56.8725C288.453 54.3251 289.019 51.2721 289.019 47.8H285.019C285.019 50.8613 284.517 53.2749 283.619 55.1275L287.218 56.8725ZM289.019 47.8V21.2H285.019V47.8H289.019ZM287.019 23.2H302.619V19.2H287.019V23.2ZM300.619 21.2V75H304.619V21.2H300.619ZM302.619 73H287.819V77H302.619V73ZM289.819 75V60.2H285.819V75H289.819ZM286.125 61.2635L288.825 65.5635L292.213 63.4365L289.513 59.1365L286.125 61.2635ZM288.717 63.6314C287.093 67.0005 284.715 69.5186 281.559 71.2455L283.479 74.7545C287.389 72.6148 290.345 69.4661 292.32 65.3686L288.717 63.6314ZM281.571 71.2391C278.41 72.9409 274.938 73.8 271.119 73.8V77.8C275.566 77.8 279.694 76.7924 283.467 74.7609L281.571 71.2391ZM327.571 72.3L326.635 74.0676L326.646 74.073L326.656 74.0783L327.571 72.3ZM316.871 62.4L315.159 63.433L315.164 63.4429L315.171 63.4527L316.871 62.4ZM316.871 33.8L315.171 32.7473L315.166 32.7549L316.871 33.8ZM327.571 24L328.486 25.7783L328.497 25.773L328.507 25.7676L327.571 24ZM357.871 24L356.879 25.7365L356.889 25.7425L356.9 25.7483L357.871 24ZM367.171 34.1L368.118 35.8619L369.766 34.9762L368.992 33.2724L367.171 34.1ZM355.071 40.6L353.321 41.5674L354.277 43.2971L356.018 42.3619L355.071 40.6ZM349.771 35L348.767 36.7296L348.779 36.7364L348.791 36.7432L349.771 35ZM335.771 35L336.752 36.7432L336.752 36.7432L335.771 35ZM330.671 40.1L328.938 39.1021L328.926 39.1221L328.915 39.1423L330.671 40.1ZM330.671 56.1L328.915 57.0577L328.926 57.0779L328.938 57.0979L330.671 56.1ZM335.771 61.2L336.752 59.4568L336.752 59.4568L335.771 61.2ZM349.771 61.3L350.733 63.0536L350.742 63.0484L350.752 63.0432L349.771 61.3ZM355.071 55.6L356.029 53.8442L354.263 52.8813L353.31 54.6518L355.071 55.6ZM367.171 62.2L368.987 63.0381L369.771 61.3399L368.129 60.4442L367.171 62.2ZM357.871 72.3L358.842 74.0483L358.853 74.0425L358.863 74.0365L357.871 72.3ZM343.071 73.8C337.545 73.8 332.7 72.6904 328.486 70.5217L326.656 74.0783C331.509 76.5763 336.997 77.8 343.071 77.8V73.8ZM328.507 70.5324C324.275 68.2919 320.977 65.2334 318.572 61.3473L315.171 63.4527C317.965 67.9666 321.801 71.5081 326.635 74.0676L328.507 70.5324ZM318.584 61.367C316.255 57.5058 315.071 53.1022 315.071 48.1H311.071C311.071 53.7645 312.421 58.8942 315.159 63.433L318.584 61.367ZM315.071 48.1C315.071 43.0257 316.257 38.629 318.576 34.8451L315.166 32.7549C312.418 37.2377 311.071 42.3743 311.071 48.1H315.071ZM318.572 34.8527C320.974 30.9716 324.265 27.9511 328.486 25.7783L326.656 22.2217C321.811 24.7156 317.968 28.2284 315.171 32.7473L318.572 34.8527ZM328.507 25.7676C332.716 23.5392 337.554 22.4 343.071 22.4V18.4C336.988 18.4 331.493 19.6608 326.635 22.2324L328.507 25.7676ZM343.071 22.4C348.45 22.4 353.029 23.5367 356.879 25.7365L358.863 22.2635C354.313 19.6633 349.026 18.4 343.071 18.4V22.4ZM356.9 25.7483C360.723 27.8723 363.526 30.915 365.35 34.9276L368.992 33.2724C366.816 28.4849 363.419 24.7944 358.842 22.2517L356.9 25.7483ZM366.225 32.3381L354.125 38.8381L356.018 42.3619L368.118 35.8619L366.225 32.3381ZM356.822 39.6326C355.275 36.8343 353.264 34.6699 350.752 33.2568L348.791 36.7432C350.545 37.7301 352.067 39.2991 353.321 41.5674L356.822 39.6326ZM350.775 33.2704C348.394 31.8874 345.779 31.2 342.971 31.2V35.2C345.097 35.2 347.015 35.7126 348.767 36.7296L350.775 33.2704ZM342.971 31.2C339.993 31.2 337.25 31.8736 334.791 33.2568L336.752 36.7432C338.559 35.7264 340.616 35.2 342.971 35.2V31.2ZM334.791 33.2568C332.332 34.6398 330.377 36.6026 328.938 39.1021L332.404 41.0979C333.499 39.1974 334.944 37.7602 336.752 36.7432L334.791 33.2568ZM328.915 39.1423C327.52 41.7008 326.871 44.7144 326.871 48.1H330.871C330.871 45.2189 331.422 42.8992 332.427 41.0577L328.915 39.1423ZM326.871 48.1C326.871 51.4856 327.52 54.4992 328.915 57.0577L332.427 55.1423C331.422 53.3008 330.871 50.9811 330.871 48.1H326.871ZM328.938 57.0979C330.377 59.5974 332.332 61.5602 334.791 62.9431L336.752 59.4568C334.944 58.4398 333.499 57.0026 332.404 55.1021L328.938 57.0979ZM334.791 62.9431C337.25 64.3264 339.993 65 342.971 65V61C340.616 61 338.559 60.4736 336.752 59.4568L334.791 62.9431ZM342.971 65C345.758 65 348.357 64.3562 350.733 63.0536L348.809 59.5464C347.051 60.5104 345.118 61 342.971 61V65ZM350.752 63.0432C353.278 61.6222 355.29 59.4123 356.832 56.5482L353.31 54.6518C352.052 56.9877 350.531 58.5778 348.791 59.5568L350.752 63.0432ZM354.113 57.3558L366.213 63.9558L368.129 60.4442L356.029 53.8442L354.113 57.3558ZM365.355 61.3619C363.532 65.3119 360.723 68.367 356.879 70.5635L358.863 74.0365C363.419 71.433 366.81 67.7548 368.987 63.0381L365.355 61.3619ZM356.9 70.5517C353.046 72.6926 348.459 73.8 343.071 73.8V77.8C349.016 77.8 354.296 76.5741 358.842 74.0483L356.9 70.5517ZM384.134 71L382.777 72.4685L382.784 72.4755L382.792 72.4824L384.134 71ZM378.834 9.3V7.3H376.834V9.3H378.834ZM394.434 9.3H396.434V7.3H394.434V9.3ZM396.234 61.6L394.782 62.9755L394.801 62.9951L394.82 63.0142L396.234 61.6ZM407.434 61.4L409.303 60.6866L408.344 58.1767L406.215 59.8148L407.434 61.4ZM411.634 72.4L412.79 74.032L414.056 73.1356L413.503 71.6866L411.634 72.4ZM405.834 75L406.306 76.9437L406.326 76.9388L406.346 76.9334L405.834 75ZM370.534 34.4H368.534V36.4H370.534V34.4ZM370.534 22.4V20.4H368.534V22.4H370.534ZM407.834 22.4H409.834V20.4H407.834V22.4ZM407.834 34.4V36.4H409.834V34.4H407.834ZM398.934 73.8C392.931 73.8 388.536 72.2876 385.477 69.5176L382.792 72.4824C386.8 76.1124 392.271 77.8 398.934 77.8V73.8ZM385.492 69.5315C382.491 66.7569 380.834 62.535 380.834 56.5H376.834C376.834 63.265 378.711 68.7098 382.777 72.4685L385.492 69.5315ZM380.834 56.5V9.3H376.834V56.5H380.834ZM378.834 11.3H394.434V7.3H378.834V11.3ZM392.434 9.3V56.3H396.434V9.3H392.434ZM392.434 56.3C392.434 58.9201 393.135 61.2365 394.782 62.9755L397.686 60.2245C396.934 59.4302 396.434 58.2132 396.434 56.3H392.434ZM394.82 63.0142C396.474 64.6682 398.66 65.4 401.134 65.4V61.4C399.475 61.4 398.395 60.9318 397.649 60.1858L394.82 63.0142ZM401.134 65.4C403.983 65.4 406.527 64.6216 408.654 62.9852L406.215 59.8148C404.876 60.8451 403.219 61.4 401.134 61.4V65.4ZM405.566 62.1134L409.766 73.1134L413.503 71.6866L409.303 60.6866L405.566 62.1134ZM410.478 70.768C409.107 71.739 407.402 72.5161 405.323 73.0666L406.346 76.9334C408.8 76.2839 410.961 75.3276 412.79 74.032L410.478 70.768ZM405.363 73.0563C403.326 73.5501 401.185 73.8 398.934 73.8V77.8C401.484 77.8 403.942 77.5166 406.306 76.9437L405.363 73.0563ZM372.534 34.4V22.4H368.534V34.4H372.534ZM370.534 24.4H407.834V20.4H370.534V24.4ZM405.834 22.4V34.4H409.834V22.4H405.834ZM407.834 32.4H370.534V36.4H407.834V32.4Z" fill="#282A30" mask="url(#path-1-outside-1_28_0)"/>
</svg>
